<mxfile host="app.diagrams.net" agent="Mozilla/5.0 (Windows NT 10.0; Win64; x64) AppleWebKit/537.36 (KHTML, like Gecko) Chrome/126.0.0.0 YaBrowser/24.7.0.0 Safari/537.36" version="24.7.17">
  <diagram name="Страница — 1" id="MtH2pXkRF7dsaT7IUWwL">
    <mxGraphModel dx="2074" dy="1143" grid="1" gridSize="10" guides="1" tooltips="1" connect="1" arrows="1" fold="1" page="1" pageScale="1" pageWidth="827" pageHeight="1169" math="0" shadow="0">
      <root>
        <mxCell id="0" />
        <mxCell id="1" parent="0" />
        <mxCell id="59DPRy3lMr5nQ4rv0eEM-1" value="ManagementSystem" style="swimlane;fontStyle=1;align=center;verticalAlign=top;childLayout=stackLayout;horizontal=1;startSize=26;horizontalStack=0;resizeParent=1;resizeParentMax=0;resizeLast=0;collapsible=1;marginBottom=0;whiteSpace=wrap;html=1;" vertex="1" parent="1">
          <mxGeometry x="190" y="40" width="210" height="360" as="geometry" />
        </mxCell>
        <mxCell id="59DPRy3lMr5nQ4rv0eEM-2" value="- _userType: bool&lt;div&gt;- _username: string&lt;/div&gt;&lt;div&gt;- _password: string&lt;/div&gt;" style="text;strokeColor=none;fillColor=none;align=left;verticalAlign=top;spacingLeft=4;spacingRight=4;overflow=hidden;rotatable=0;points=[[0,0.5],[1,0.5]];portConstraint=eastwest;whiteSpace=wrap;html=1;" vertex="1" parent="59DPRy3lMr5nQ4rv0eEM-1">
          <mxGeometry y="26" width="210" height="54" as="geometry" />
        </mxCell>
        <mxCell id="59DPRy3lMr5nQ4rv0eEM-3" value="" style="line;strokeWidth=1;fillColor=none;align=left;verticalAlign=middle;spacingTop=-1;spacingLeft=3;spacingRight=3;rotatable=0;labelPosition=right;points=[];portConstraint=eastwest;strokeColor=inherit;" vertex="1" parent="59DPRy3lMr5nQ4rv0eEM-1">
          <mxGeometry y="80" width="210" height="8" as="geometry" />
        </mxCell>
        <mxCell id="59DPRy3lMr5nQ4rv0eEM-4" value="+ Login(username: string,&lt;div&gt;&lt;span style=&quot;white-space: pre;&quot;&gt;&#x9;&lt;/span&gt;&amp;nbsp; &amp;nbsp; &amp;nbsp;password: string)&lt;div&gt;&lt;br&gt;&lt;div&gt;+ Register(username: string, &lt;span style=&quot;white-space: pre;&quot;&gt;&#x9;&lt;/span&gt;&lt;span style=&quot;white-space: pre;&quot;&gt;&#x9;&lt;/span&gt;&amp;nbsp; &amp;nbsp;&lt;span style=&quot;white-space: pre;&quot;&gt;&#x9;&lt;/span&gt;&lt;span style=&quot;white-space: pre;&quot;&gt;&#x9;&lt;/span&gt;&amp;nbsp;&amp;nbsp;password:string,&lt;/div&gt;&lt;div&gt;&lt;span style=&quot;white-space: pre;&quot;&gt;&#x9;&lt;/span&gt;&lt;span style=&quot;white-space: pre;&quot;&gt;&#x9;&lt;/span&gt;&amp;nbsp; name: string,&lt;/div&gt;&lt;div&gt;&lt;span style=&quot;white-space: pre;&quot;&gt;&#x9;&lt;/span&gt;&lt;span style=&quot;white-space: pre;&quot;&gt;&#x9;&lt;/span&gt;&amp;nbsp; surname:string,&lt;/div&gt;&lt;div&gt;&lt;span style=&quot;white-space: pre;&quot;&gt;&#x9;&lt;/span&gt;&lt;span style=&quot;white-space: pre;&quot;&gt;&#x9;&lt;/span&gt;&amp;nbsp; phone: string,&lt;/div&gt;&lt;div&gt;&lt;span style=&quot;white-space: pre;&quot;&gt;&#x9;&lt;/span&gt;&lt;span style=&quot;white-space: pre;&quot;&gt;&#x9;&lt;/span&gt;&amp;nbsp; email: string)&lt;/div&gt;&lt;div&gt;&lt;br&gt;&lt;/div&gt;&lt;div&gt;+ RegisterLibrarian&lt;span style=&quot;background-color: initial;&quot;&gt;(username: string, &lt;span style=&quot;white-space: pre;&quot;&gt;&#x9;&lt;/span&gt;&lt;span style=&quot;white-space: pre;&quot;&gt;&#x9;&lt;/span&gt;&lt;span style=&quot;white-space: pre;&quot;&gt;&#x9;&lt;/span&gt;&lt;span style=&quot;white-space: pre;&quot;&gt;&#x9;&lt;/span&gt;password:string,&lt;/span&gt;&lt;/div&gt;&lt;div&gt;&lt;span style=&quot;background-color: initial;&quot;&gt;&lt;span style=&quot;white-space: pre;&quot;&gt;&#x9;&lt;/span&gt;&lt;span style=&quot;white-space: pre;&quot;&gt;&#x9;&lt;/span&gt;&lt;span style=&quot;white-space: pre;&quot;&gt;&#x9;&lt;/span&gt;&lt;span style=&quot;white-space: pre;&quot;&gt;&#x9;&lt;/span&gt;name: string,&lt;/span&gt;&lt;/div&gt;&lt;div&gt;&lt;span style=&quot;background-color: initial;&quot;&gt;&lt;span style=&quot;white-space: pre;&quot;&gt;&#x9;&lt;/span&gt;&lt;span style=&quot;white-space: pre;&quot;&gt;&#x9;&lt;/span&gt;&lt;span style=&quot;white-space: pre;&quot;&gt;&#x9;&lt;/span&gt;&lt;span style=&quot;white-space: pre;&quot;&gt;&#x9;&lt;/span&gt;surname:string,&lt;/span&gt;&lt;/div&gt;&lt;div&gt;&lt;span style=&quot;background-color: initial;&quot;&gt;&lt;span style=&quot;white-space: pre;&quot;&gt;&#x9;&lt;/span&gt;&lt;span style=&quot;white-space: pre;&quot;&gt;&#x9;&lt;/span&gt;&lt;span style=&quot;white-space: pre;&quot;&gt;&#x9;&lt;/span&gt;&lt;span style=&quot;white-space: pre;&quot;&gt;&#x9;&lt;/span&gt;phone: string,&lt;/span&gt;&lt;/div&gt;&lt;div&gt;&lt;span style=&quot;background-color: initial;&quot;&gt;&lt;span style=&quot;white-space: pre;&quot;&gt;&#x9;&lt;/span&gt;&lt;span style=&quot;white-space: pre;&quot;&gt;&#x9;&lt;/span&gt;&lt;span style=&quot;white-space: pre;&quot;&gt;&#x9;&lt;/span&gt;&lt;span style=&quot;white-space: pre;&quot;&gt;&#x9;&lt;/span&gt;email: string)&lt;/span&gt;&lt;/div&gt;&lt;div&gt;&lt;br&gt;&lt;/div&gt;&lt;div&gt;+ Logout()&lt;/div&gt;&lt;/div&gt;&lt;/div&gt;" style="text;strokeColor=none;fillColor=none;align=left;verticalAlign=top;spacingLeft=4;spacingRight=4;overflow=hidden;rotatable=0;points=[[0,0.5],[1,0.5]];portConstraint=eastwest;whiteSpace=wrap;html=1;" vertex="1" parent="59DPRy3lMr5nQ4rv0eEM-1">
          <mxGeometry y="88" width="210" height="272" as="geometry" />
        </mxCell>
        <mxCell id="59DPRy3lMr5nQ4rv0eEM-5" value="User" style="swimlane;fontStyle=1;align=center;verticalAlign=top;childLayout=stackLayout;horizontal=1;startSize=26;horizontalStack=0;resizeParent=1;resizeParentMax=0;resizeLast=0;collapsible=1;marginBottom=0;whiteSpace=wrap;html=1;" vertex="1" parent="1">
          <mxGeometry x="40" y="480" width="180" height="290" as="geometry" />
        </mxCell>
        <mxCell id="59DPRy3lMr5nQ4rv0eEM-6" value="&lt;div&gt;- _id: int&lt;/div&gt;&lt;div&gt;- _username:string&lt;/div&gt;&lt;div&gt;- _password: string&lt;br&gt;&lt;/div&gt;- _name: string&lt;div&gt;- _surname: string&lt;/div&gt;&lt;div&gt;- _phone: string&lt;/div&gt;&lt;div&gt;- _email: string&lt;/div&gt;&lt;div&gt;- _borrowed: List&amp;lt;Book&amp;gt;&lt;/div&gt;&lt;div&gt;- _reserved: List&amp;lt;Book&amp;gt;&lt;/div&gt;&lt;div&gt;- _returned: List&amp;lt;Book&amp;gt;&lt;/div&gt;&lt;div&gt;- _lost: List&amp;lt;Book&amp;gt;&lt;/div&gt;&lt;div&gt;- _fine: float&lt;/div&gt;" style="text;strokeColor=none;fillColor=none;align=left;verticalAlign=top;spacingLeft=4;spacingRight=4;overflow=hidden;rotatable=0;points=[[0,0.5],[1,0.5]];portConstraint=eastwest;whiteSpace=wrap;html=1;" vertex="1" parent="59DPRy3lMr5nQ4rv0eEM-5">
          <mxGeometry y="26" width="180" height="184" as="geometry" />
        </mxCell>
        <mxCell id="59DPRy3lMr5nQ4rv0eEM-7" value="" style="line;strokeWidth=1;fillColor=none;align=left;verticalAlign=middle;spacingTop=-1;spacingLeft=3;spacingRight=3;rotatable=0;labelPosition=right;points=[];portConstraint=eastwest;strokeColor=inherit;" vertex="1" parent="59DPRy3lMr5nQ4rv0eEM-5">
          <mxGeometry y="210" width="180" height="8" as="geometry" />
        </mxCell>
        <mxCell id="59DPRy3lMr5nQ4rv0eEM-8" value="+ Verify()&lt;div&gt;+ GetInfo(): string&lt;/div&gt;&lt;div&gt;+ GetBooksInfo(): string&lt;/div&gt;&lt;div&gt;+ CalculateFine(): float&lt;/div&gt;" style="text;strokeColor=none;fillColor=none;align=left;verticalAlign=top;spacingLeft=4;spacingRight=4;overflow=hidden;rotatable=0;points=[[0,0.5],[1,0.5]];portConstraint=eastwest;whiteSpace=wrap;html=1;" vertex="1" parent="59DPRy3lMr5nQ4rv0eEM-5">
          <mxGeometry y="218" width="180" height="72" as="geometry" />
        </mxCell>
        <mxCell id="59DPRy3lMr5nQ4rv0eEM-13" value="Book" style="swimlane;fontStyle=1;align=center;verticalAlign=top;childLayout=stackLayout;horizontal=1;startSize=26;horizontalStack=0;resizeParent=1;resizeParentMax=0;resizeLast=0;collapsible=1;marginBottom=0;whiteSpace=wrap;html=1;" vertex="1" parent="1">
          <mxGeometry x="290" y="480" width="150" height="220" as="geometry" />
        </mxCell>
        <mxCell id="59DPRy3lMr5nQ4rv0eEM-14" value="&lt;div&gt;- _id: int&lt;/div&gt;- _title: string&lt;div&gt;- _author: string&lt;/div&gt;&lt;div&gt;- _isbn: string&lt;/div&gt;&lt;div&gt;- _year: int&lt;/div&gt;&lt;div&gt;- _status: Status&lt;/div&gt;&lt;div&gt;- _publisher: string&lt;/div&gt;&lt;div&gt;- _description: string&lt;/div&gt;" style="text;strokeColor=none;fillColor=none;align=left;verticalAlign=top;spacingLeft=4;spacingRight=4;overflow=hidden;rotatable=0;points=[[0,0.5],[1,0.5]];portConstraint=eastwest;whiteSpace=wrap;html=1;" vertex="1" parent="59DPRy3lMr5nQ4rv0eEM-13">
          <mxGeometry y="26" width="150" height="124" as="geometry" />
        </mxCell>
        <mxCell id="59DPRy3lMr5nQ4rv0eEM-15" value="" style="line;strokeWidth=1;fillColor=none;align=left;verticalAlign=middle;spacingTop=-1;spacingLeft=3;spacingRight=3;rotatable=0;labelPosition=right;points=[];portConstraint=eastwest;strokeColor=inherit;" vertex="1" parent="59DPRy3lMr5nQ4rv0eEM-13">
          <mxGeometry y="150" width="150" height="8" as="geometry" />
        </mxCell>
        <mxCell id="59DPRy3lMr5nQ4rv0eEM-16" value="+ IsAvailable(): bool&lt;div&gt;+ GetInfo(): string&lt;/div&gt;&lt;div&gt;+ SetStatus(Status status)&lt;/div&gt;" style="text;strokeColor=none;fillColor=none;align=left;verticalAlign=top;spacingLeft=4;spacingRight=4;overflow=hidden;rotatable=0;points=[[0,0.5],[1,0.5]];portConstraint=eastwest;whiteSpace=wrap;html=1;" vertex="1" parent="59DPRy3lMr5nQ4rv0eEM-13">
          <mxGeometry y="158" width="150" height="62" as="geometry" />
        </mxCell>
        <mxCell id="59DPRy3lMr5nQ4rv0eEM-17" value="Librarian" style="swimlane;fontStyle=1;align=center;verticalAlign=top;childLayout=stackLayout;horizontal=1;startSize=26;horizontalStack=0;resizeParent=1;resizeParentMax=0;resizeLast=0;collapsible=1;marginBottom=0;whiteSpace=wrap;html=1;" vertex="1" parent="1">
          <mxGeometry x="520" y="530" width="120" height="148" as="geometry" />
        </mxCell>
        <mxCell id="59DPRy3lMr5nQ4rv0eEM-18" value="&lt;div&gt;- _id: int&lt;/div&gt;&lt;div&gt;- _username:string&lt;/div&gt;&lt;div&gt;- _password: string&lt;br&gt;&lt;/div&gt;- _name: string&lt;div&gt;- _surname: string&lt;/div&gt;&lt;div&gt;- _phone: string&lt;/div&gt;&lt;div&gt;- _email: string&lt;/div&gt;&lt;div&gt;&lt;br&gt;&lt;/div&gt;" style="text;strokeColor=none;fillColor=none;align=left;verticalAlign=top;spacingLeft=4;spacingRight=4;overflow=hidden;rotatable=0;points=[[0,0.5],[1,0.5]];portConstraint=eastwest;whiteSpace=wrap;html=1;" vertex="1" parent="59DPRy3lMr5nQ4rv0eEM-17">
          <mxGeometry y="26" width="120" height="114" as="geometry" />
        </mxCell>
        <mxCell id="59DPRy3lMr5nQ4rv0eEM-19" value="" style="line;strokeWidth=1;fillColor=none;align=left;verticalAlign=middle;spacingTop=-1;spacingLeft=3;spacingRight=3;rotatable=0;labelPosition=right;points=[];portConstraint=eastwest;strokeColor=inherit;" vertex="1" parent="59DPRy3lMr5nQ4rv0eEM-17">
          <mxGeometry y="140" width="120" height="8" as="geometry" />
        </mxCell>
        <mxCell id="59DPRy3lMr5nQ4rv0eEM-21" value="LibraryDatabase" style="swimlane;fontStyle=1;align=center;verticalAlign=top;childLayout=stackLayout;horizontal=1;startSize=26;horizontalStack=0;resizeParent=1;resizeParentMax=0;resizeLast=0;collapsible=1;marginBottom=0;whiteSpace=wrap;html=1;" vertex="1" parent="1">
          <mxGeometry x="520" y="40" width="280" height="410" as="geometry" />
        </mxCell>
        <mxCell id="59DPRy3lMr5nQ4rv0eEM-22" value="- _books: List&amp;lt;Book&amp;gt;&lt;div&gt;&lt;br&gt;&lt;/div&gt;" style="text;strokeColor=none;fillColor=none;align=left;verticalAlign=top;spacingLeft=4;spacingRight=4;overflow=hidden;rotatable=0;points=[[0,0.5],[1,0.5]];portConstraint=eastwest;whiteSpace=wrap;html=1;" vertex="1" parent="59DPRy3lMr5nQ4rv0eEM-21">
          <mxGeometry y="26" width="280" height="24" as="geometry" />
        </mxCell>
        <mxCell id="59DPRy3lMr5nQ4rv0eEM-23" value="" style="line;strokeWidth=1;fillColor=none;align=left;verticalAlign=middle;spacingTop=-1;spacingLeft=3;spacingRight=3;rotatable=0;labelPosition=right;points=[];portConstraint=eastwest;strokeColor=inherit;" vertex="1" parent="59DPRy3lMr5nQ4rv0eEM-21">
          <mxGeometry y="50" width="280" height="8" as="geometry" />
        </mxCell>
        <mxCell id="59DPRy3lMr5nQ4rv0eEM-24" value="+ Add(Book book)&lt;div&gt;+ Delete(int id)&lt;/div&gt;&lt;div&gt;+ Update(Book from, Book to)&lt;/div&gt;&lt;div&gt;+ GetCatalogue&lt;span style=&quot;background-color: initial;&quot;&gt;: List&amp;lt;Book&amp;gt;&lt;/span&gt;&lt;/div&gt;&lt;div&gt;+ Search&lt;span style=&quot;background-color: initial;&quot;&gt;(&lt;/span&gt;&lt;span style=&quot;background-color: initial;&quot;&gt;id: int&lt;/span&gt;&lt;/div&gt;&lt;div&gt;&lt;span style=&quot;background-color: initial;&quot;&gt;&lt;span style=&quot;white-space: pre;&quot;&gt;&#x9;&lt;/span&gt;&lt;span style=&quot;white-space: pre;&quot;&gt;&#x9;&lt;/span&gt;title: string&lt;/span&gt;&lt;/div&gt;&lt;div&gt;&lt;span style=&quot;background-color: initial;&quot;&gt;&lt;span style=&quot;white-space: pre;&quot;&gt;&#x9;&lt;/span&gt;&lt;span style=&quot;white-space: pre;&quot;&gt;&#x9;&lt;/span&gt;author: string&lt;/span&gt;&lt;/div&gt;&lt;div&gt;&lt;span style=&quot;background-color: initial;&quot;&gt;&lt;span style=&quot;white-space: pre;&quot;&gt;&#x9;&lt;/span&gt;&lt;span style=&quot;white-space: pre;&quot;&gt;&#x9;&lt;/span&gt;isbn: string&lt;/span&gt;&lt;/div&gt;&lt;div&gt;&lt;span style=&quot;background-color: initial;&quot;&gt;&lt;span style=&quot;white-space: pre;&quot;&gt;&#x9;&lt;/span&gt;&lt;span style=&quot;white-space: pre;&quot;&gt;&#x9;&lt;/span&gt;year: int&lt;/span&gt;&lt;/div&gt;&lt;div&gt;&lt;span style=&quot;background-color: initial;&quot;&gt;&lt;span style=&quot;white-space: pre;&quot;&gt;&#x9;&lt;/span&gt;&lt;span style=&quot;white-space: pre;&quot;&gt;&#x9;&lt;/span&gt;status: Status&lt;/span&gt;&lt;/div&gt;&lt;div&gt;&lt;span style=&quot;background-color: initial;&quot;&gt;&lt;span style=&quot;white-space: pre;&quot;&gt;&#x9;&lt;/span&gt;&lt;span style=&quot;white-space: pre;&quot;&gt;&#x9;&lt;/span&gt;publisher: string&lt;/span&gt;&lt;/div&gt;&lt;div&gt;&lt;span style=&quot;background-color: initial;&quot;&gt;&lt;span style=&quot;white-space: pre;&quot;&gt;&#x9;&lt;/span&gt;&lt;span style=&quot;white-space: pre;&quot;&gt;&#x9;&lt;/span&gt;description: string&lt;/span&gt;&lt;span style=&quot;background-color: initial;&quot;&gt;)&lt;/span&gt;: Book&lt;/div&gt;" style="text;strokeColor=none;fillColor=none;align=left;verticalAlign=top;spacingLeft=4;spacingRight=4;overflow=hidden;rotatable=0;points=[[0,0.5],[1,0.5]];portConstraint=eastwest;whiteSpace=wrap;html=1;" vertex="1" parent="59DPRy3lMr5nQ4rv0eEM-21">
          <mxGeometry y="58" width="280" height="352" as="geometry" />
        </mxCell>
        <mxCell id="59DPRy3lMr5nQ4rv0eEM-26" value="&amp;lt;&amp;lt;enumeration&amp;gt;&amp;gt;&lt;div&gt;Status&lt;/div&gt;" style="swimlane;fontStyle=0;childLayout=stackLayout;horizontal=1;startSize=30;fillColor=none;horizontalStack=0;resizeParent=1;resizeParentMax=0;resizeLast=0;collapsible=1;marginBottom=0;whiteSpace=wrap;html=1;" vertex="1" parent="1">
          <mxGeometry x="300" y="760" width="130" height="100" as="geometry" />
        </mxCell>
        <mxCell id="59DPRy3lMr5nQ4rv0eEM-27" value="&lt;div&gt;Lost&lt;/div&gt;&lt;div&gt;Borrowed&lt;/div&gt;&lt;div&gt;Reserved&lt;/div&gt;&lt;div&gt;Available&lt;/div&gt;&lt;div&gt;&lt;br&gt;&lt;/div&gt;&lt;div&gt;&lt;br&gt;&lt;/div&gt;" style="text;strokeColor=none;fillColor=none;align=left;verticalAlign=top;spacingLeft=4;spacingRight=4;overflow=hidden;rotatable=0;points=[[0,0.5],[1,0.5]];portConstraint=eastwest;whiteSpace=wrap;html=1;" vertex="1" parent="59DPRy3lMr5nQ4rv0eEM-26">
          <mxGeometry y="30" width="130" height="70" as="geometry" />
        </mxCell>
        <mxCell id="59DPRy3lMr5nQ4rv0eEM-30" value="" style="endArrow=diamondThin;endFill=1;endSize=24;html=1;rounded=0;entryX=0.243;entryY=1.007;entryDx=0;entryDy=0;entryPerimeter=0;exitX=0.5;exitY=0;exitDx=0;exitDy=0;" edge="1" parent="1" source="59DPRy3lMr5nQ4rv0eEM-5" target="59DPRy3lMr5nQ4rv0eEM-4">
          <mxGeometry width="160" relative="1" as="geometry">
            <mxPoint x="330" y="500" as="sourcePoint" />
            <mxPoint x="490" y="500" as="targetPoint" />
            <Array as="points">
              <mxPoint x="130" y="440" />
              <mxPoint x="240" y="440" />
            </Array>
          </mxGeometry>
        </mxCell>
        <mxCell id="59DPRy3lMr5nQ4rv0eEM-32" value="" style="endArrow=diamondThin;endFill=1;endSize=24;html=1;rounded=0;entryX=0.733;entryY=1.015;entryDx=0;entryDy=0;entryPerimeter=0;exitX=0.5;exitY=0;exitDx=0;exitDy=0;" edge="1" parent="1" source="59DPRy3lMr5nQ4rv0eEM-17" target="59DPRy3lMr5nQ4rv0eEM-4">
          <mxGeometry width="160" relative="1" as="geometry">
            <mxPoint x="330" y="500" as="sourcePoint" />
            <mxPoint x="490" y="500" as="targetPoint" />
            <Array as="points">
              <mxPoint x="580" y="500" />
              <mxPoint x="470" y="500" />
              <mxPoint x="470" y="440" />
              <mxPoint x="344" y="440" />
              <mxPoint x="344" y="430" />
            </Array>
          </mxGeometry>
        </mxCell>
        <mxCell id="59DPRy3lMr5nQ4rv0eEM-36" value="1" style="edgeLabel;html=1;align=center;verticalAlign=middle;resizable=0;points=[];" vertex="1" connectable="0" parent="1">
          <mxGeometry x="370.3896743445431" y="751.770135017133" as="geometry" />
        </mxCell>
        <mxCell id="59DPRy3lMr5nQ4rv0eEM-37" value="1" style="edgeLabel;html=1;align=center;verticalAlign=middle;resizable=0;points=[];" vertex="1" connectable="0" parent="1">
          <mxGeometry x="359.9996743445431" y="730.0001350171331" as="geometry">
            <mxPoint x="-132" y="-313" as="offset" />
          </mxGeometry>
        </mxCell>
        <mxCell id="59DPRy3lMr5nQ4rv0eEM-38" value="1" style="edgeLabel;html=1;align=center;verticalAlign=middle;resizable=0;points=[];" vertex="1" connectable="0" parent="1">
          <mxGeometry x="826.9996743445431" y="775.0001350171331" as="geometry">
            <mxPoint x="-132" y="-313" as="offset" />
          </mxGeometry>
        </mxCell>
        <mxCell id="59DPRy3lMr5nQ4rv0eEM-39" value="1" style="edgeLabel;html=1;align=center;verticalAlign=middle;resizable=0;points=[];" vertex="1" connectable="0" parent="1">
          <mxGeometry x="459.9996743445431" y="730.0001350171331" as="geometry">
            <mxPoint x="-132" y="-313" as="offset" />
          </mxGeometry>
        </mxCell>
        <mxCell id="59DPRy3lMr5nQ4rv0eEM-40" value="*" style="edgeLabel;html=1;align=center;verticalAlign=middle;resizable=0;points=[];" vertex="1" connectable="0" parent="1">
          <mxGeometry x="332.99942178936055" y="723.9981242709154" as="geometry">
            <mxPoint x="-211" y="-253" as="offset" />
          </mxGeometry>
        </mxCell>
        <mxCell id="59DPRy3lMr5nQ4rv0eEM-41" value="*" style="edgeLabel;html=1;align=center;verticalAlign=middle;resizable=0;points=[];" vertex="1" connectable="0" parent="1">
          <mxGeometry x="657.9994217893606" y="915.9981242709154" as="geometry">
            <mxPoint x="-211" y="-253" as="offset" />
          </mxGeometry>
        </mxCell>
        <mxCell id="59DPRy3lMr5nQ4rv0eEM-42" value="*" style="edgeLabel;html=1;align=center;verticalAlign=middle;resizable=0;points=[];" vertex="1" connectable="0" parent="1">
          <mxGeometry x="797.9994217893606" y="774.9981242709154" as="geometry">
            <mxPoint x="-211" y="-253" as="offset" />
          </mxGeometry>
        </mxCell>
        <mxCell id="59DPRy3lMr5nQ4rv0eEM-44" value="*" style="edgeLabel;html=1;align=center;verticalAlign=middle;resizable=0;points=[];" vertex="1" connectable="0" parent="1">
          <mxGeometry x="436.99942178936055" y="842.9981242709154" as="geometry">
            <mxPoint x="-211" y="-253" as="offset" />
          </mxGeometry>
        </mxCell>
        <mxCell id="59DPRy3lMr5nQ4rv0eEM-45" value="*" style="edgeLabel;html=1;align=center;verticalAlign=middle;resizable=0;points=[];" vertex="1" connectable="0" parent="1">
          <mxGeometry x="494.99942178936055" y="842.9981242709154" as="geometry">
            <mxPoint x="-211" y="-253" as="offset" />
          </mxGeometry>
        </mxCell>
        <mxCell id="59DPRy3lMr5nQ4rv0eEM-46" value="" style="line;strokeWidth=1;fillColor=none;align=left;verticalAlign=middle;spacingTop=-1;spacingLeft=3;spacingRight=3;rotatable=0;labelPosition=right;points=[];portConstraint=eastwest;strokeColor=inherit;" vertex="1" parent="1">
          <mxGeometry x="220" y="590" width="70" height="8" as="geometry" />
        </mxCell>
        <mxCell id="59DPRy3lMr5nQ4rv0eEM-48" value="" style="endArrow=none;html=1;rounded=0;entryX=0.462;entryY=0;entryDx=0;entryDy=0;entryPerimeter=0;" edge="1" parent="1" target="59DPRy3lMr5nQ4rv0eEM-26">
          <mxGeometry relative="1" as="geometry">
            <mxPoint x="360" y="700" as="sourcePoint" />
            <mxPoint x="520" y="700" as="targetPoint" />
          </mxGeometry>
        </mxCell>
        <mxCell id="59DPRy3lMr5nQ4rv0eEM-49" value="*" style="edgeLabel;html=1;align=center;verticalAlign=middle;resizable=0;points=[];" vertex="1" connectable="0" parent="1">
          <mxGeometry x="581.9994217893606" y="961.9981242709154" as="geometry">
            <mxPoint x="-211" y="-253" as="offset" />
          </mxGeometry>
        </mxCell>
        <mxCell id="59DPRy3lMr5nQ4rv0eEM-53" value="" style="endArrow=none;html=1;rounded=0;entryX=0.833;entryY=0;entryDx=0;entryDy=0;entryPerimeter=0;" edge="1" parent="1" target="59DPRy3lMr5nQ4rv0eEM-17">
          <mxGeometry relative="1" as="geometry">
            <mxPoint x="620" y="450" as="sourcePoint" />
            <mxPoint x="620" y="510" as="targetPoint" />
          </mxGeometry>
        </mxCell>
        <mxCell id="59DPRy3lMr5nQ4rv0eEM-54" value="1" style="edgeLabel;html=1;align=center;verticalAlign=middle;resizable=0;points=[];" vertex="1" connectable="0" parent="1">
          <mxGeometry x="823.9994217893606" y="712.9981242709154" as="geometry">
            <mxPoint x="-211" y="-253" as="offset" />
          </mxGeometry>
        </mxCell>
        <mxCell id="59DPRy3lMr5nQ4rv0eEM-55" value="*" style="edgeLabel;html=1;align=center;verticalAlign=middle;resizable=0;points=[];" vertex="1" connectable="0" parent="1">
          <mxGeometry x="823.9994217893606" y="774.9981242709154" as="geometry">
            <mxPoint x="-211" y="-253" as="offset" />
          </mxGeometry>
        </mxCell>
        <mxCell id="59DPRy3lMr5nQ4rv0eEM-56" value="" style="endArrow=diamondThin;endFill=1;endSize=24;html=1;rounded=0;exitX=1;exitY=0.5;exitDx=0;exitDy=0;" edge="1" parent="1" source="59DPRy3lMr5nQ4rv0eEM-16">
          <mxGeometry width="160" relative="1" as="geometry">
            <mxPoint x="160" y="400" as="sourcePoint" />
            <mxPoint x="680" y="450" as="targetPoint" />
            <Array as="points">
              <mxPoint x="480" y="669" />
              <mxPoint x="480" y="720" />
              <mxPoint x="680" y="720" />
            </Array>
          </mxGeometry>
        </mxCell>
      </root>
    </mxGraphModel>
  </diagram>
</mxfile>
